<?xml version="1.0" encoding="UTF-8"?>
<!-- Created with Inkscape (http://www.inkscape.org/) -->
<svg width="793.7" height="1122.5" version="1.1" viewBox="0 0 210 297" xmlns="http://www.w3.org/2000/svg">
 <g id="nand">
  <g fill="#1a1a1a">
   <rect x="-.0017388" y="8.4675" width="9.004" height="2.1164" stroke-width=".09284"/>
   <rect x="-.0017388" y="23.284" width="8.9806" height="2.1164" stroke-width=".09272"/>
   <path d="m35.98 14.816a2.1165 2.1164 0 0 0-2.1165 2.1164 2.1165 2.1164 0 0 0 2.1165 2.1165 2.1165 2.1164 0 0 0 1.8323-1.0582h4.5172v-2.1164h-4.517a2.1165 2.1164 0 0 0-1.8324-1.0583zm0 1.0583a1.0583 1.0582 0 0 1 1.0582 1.0582 1.0583 1.0582 0 0 1-1.0582 1.0583 1.0583 1.0582 0 0 1-1.0584-1.0583 1.0583 1.0582 0 0 1 1.0584-1.0582z" stroke-width=".067955"/>
   <path d="m8.4644 0.0014v33.863h12.699a12.699 16.931 0 0 0 11.769-10.571c1e-3 0 2e-3 -0.01 4e-3 -0.011 8e-4 0 2e-3 -0.01 2e-3 -0.01a12.699 16.931 0 0 0 0.22545-0.8029c0.55779-1.8289 1.39-3.422 2.8158-3.422l-1.0743-1.0583-0.98451-1.0583 0.98451-1.0581 1.0743-1.0583c-1.466 0-2.3037-1.6847-2.8616-3.5778a12.699 16.931 0 0 0-0.12975-0.4614c-0.0173-0.065-0.0354-0.1291-0.0522-0.1939-0.0255-0.099-0.0545-0.1816-0.0863-0.2514a12.699 16.931 0 0 0-11.686-10.33z" stroke-width=".26456"/>
  </g>
  <g fill="#333" stroke-width=".59776">
   <rect x="42.077" y="16.821" width=".25218" height=".22416" index="0" side="right" type="output"/>
   <rect x="-.0017388" y="9.4135" width=".25218" height=".22416" index="0" side="left" type="input"/>
   <rect x="-.0017388" y="24.23" width=".25218" height=".22416" index="1" side="left" type="input"/>
  </g>
 </g>
 <g id="or">
  <g fill="#1a1a1a">
   <path d="m4.4934 0v0.01c-2.1891 0 0 1.8907 0 1.8907a8.4661 16.93 0 0 1 4.5794 15.029 8.4661 16.93 0 0 1-4.5794 15.039s-2.1891 1.8907 0 1.8907h20.936a8.4661 16.93 0 0 0 7.8046-10.618l0.0119 0.038c0.91018-4.342 0.57195-5.2893 2.7349-5.2893l-1.153-1.0356-0.97555 0.3121a8.4661 16.93 0 0 0 0.0119-0.3347 8.4661 16.93 0 0 0-0.0119-0.3345l0.97555 0.3121 1.153-1.0356c-2.1629 0-1.8248-0.9473-2.7349-5.2893l-0.0118 0.038a8.4661 16.93 0 0 0-7.8046-10.619v-7e-4h-0.0316z" stroke-width=".64659"/>
   <rect x="-.0017388" y="8.467" width="8.4666" height="2.1162" stroke-width=".090022"/>
   <rect x="-.0017388" y="23.281" width="8.4666" height="2.1162" stroke-width=".090022"/>
   <rect x="33.246" y="15.874" width="9.0849" height="2.1162" stroke-width=".09325"/>
  </g>
  <g fill="#333" stroke-width=".59776">
   <rect x="-.0017388" y="9.413" width=".25218" height=".22416" index="0" side="left" type="input"/>
   <rect x="-.0017388" y="24.227" width=".25218" height=".22416" index="1" side="left" type="input"/>
   <rect x="42.079" y="16.82" width=".25218" height=".22416" index="0" side="right" type="output"/>
  </g>
 </g>
 <g id="and">
  <g fill="#1a1a1a">
   <rect x="-.0017385" y="8.4667" width="9.591" height="2.1165" stroke-width=".09582"/>
   <rect x="-.0017385" y="23.283" width="10.385" height="2.1165" stroke-width=".099707"/>
   <rect x="33.865" y="15.875" width="8.4666" height="2.1165" stroke-width=".090028"/>
   <path d="m8.4653 7e-4v33.864h12.7a12.7 16.932 0 0 0 11.697-10.349c0.0256-0.073 0.051-0.1465 0.0755-0.2338 7e-3 -0.026 0.0133-0.05 0.0205-0.075a12.7 16.932 0 0 0 0.35152-1.3386c0.6497-2.5994 0.85962-3.8771 2.6717-3.8771-1.5219-1.0584-1.1414-0.7938-1.5219-1.0584 0.38046-0.2645 3e-5 1e-4 1.5219-1.0582-2.1167 0-2.043-1.7289-3.0437-5.2912-0.0126-0.045-0.0257-0.084-0.0386-0.125a12.7 16.932 0 0 0-3e-3 -0.01c-0.0338-0.1065-0.0684-0.2005-0.10405-0.2814a12.7 16.932 0 0 0-11.628-10.167z" stroke-width=".26457"/>
  </g>
  <g fill="#333" stroke-width=".59776">
   <rect x="-.0017385" y="9.4127" width=".25218" height=".22416" index="0" side="left" type="input"/>
   <rect x="-.0017385" y="24.229" width=".25218" height=".22416" index="1" side="left" type="input"/>
   <rect x="42.079" y="16.821" width=".25218" height=".22416" index="0" side="right" type="output"/>
  </g>
 </g>
 <g id="xor">
  <g fill="#1a1a1a">
   <path d="m25.397 0-20.904 1e-4v0.01c-2.189 0 0 1.891 0 1.891a8.4658 16.932 0 0 1 4.5793 15.032 8.4658 16.932 0 0 1-4.5793 15.042s-2.189 1.891 0 1.891h20.935a8.4658 16.932 0 0 0 7.8043-10.62l0.0119 0.038c0.91015-4.3427 0.57193-5.2902 2.7348-5.2902l-1.153-1.0358-0.97552 0.3122a8.4658 16.932 0 0 0 0.0119-0.3347 8.4658 16.932 0 0 0-0.0119-0.3346l0.97552 0.3122 1.153-1.0358c-2.1629 0-1.8247-0.9475-2.7348-5.2902l-0.0118 0.038a8.4658 16.932 0 0 0-7.8043-10.621v-9e-4zm-23.44 1.7604c-0.78436 0.01-0.80438 1.7369 0.99981 4.8619a13.129 16.479 0 0 1 2.8879 10.31 13.129 16.479 0 0 1-2.8879 10.31c-2.4056 4.1666-1.5681 5.852 0 4.2839a13.129 18.595 0 0 0 5.0045-14.594 13.129 18.595 0 0 0-5.0045-14.593c-0.39202-0.392-0.73836-0.5807-0.99981-0.5781z" stroke-width=".64663"/>
   <rect x="-.0017387" y="8.468" width="8.4663" height="2.1166" stroke-width=".090028"/>
   <rect x="-.0017387" y="23.278" width="8.4663" height="2.1166" stroke-width=".090028"/>
   <rect x="33.245" y="15.878" width="9.0846" height="2.1166" stroke-width=".093256"/>
  </g>
  <g fill="#333" stroke-width=".59776">
   <rect x="42.077" y="16.818" width=".25218" height=".22416" index="0" side="right" type="output"/>
   <rect x="-.0017387" y="9.418" width=".25218" height=".22416" index="0" side="left" type="input"/>
   <rect x="-.0017387" y="24.228" width=".25218" height=".22416" index="1" side="left" type="input"/>
  </g>
 </g>
 <g id="not">
  <g fill="#1a1a1a">
   <rect x="-.0017391" y="15.87" width="8.6649" height="2.1158" stroke-width=".091061"/>
   <path d="m35.98 14.82a2.1165 2.1158 0 0 0-2.1165 2.1158 2.1165 2.1158 0 0 0 2.1165 2.1157 2.1165 2.1158 0 0 0 1.8323-1.0578h4.5172v-2.1158h-4.517a2.1165 2.1158 0 0 0-1.8324-1.0579zm0 1.058a1.0583 1.0579 0 0 1 1.0582 1.0578 1.0583 1.0579 0 0 1-1.0582 1.0579 1.0583 1.0579 0 0 1-1.0584-1.0579 1.0583 1.0579 0 0 1 1.0584-1.0578z" stroke-width=".067944"/>
   <path d="m8.4643 0v33.852l25.947-15.962a1.8323 1.7139 0 0 1-0.26482-0.8856 1.8323 1.7139 0 0 1 0.34206-0.9955z" stroke-width=".069986"/>
  </g>
  <rect x="-.0017391" y="16.82" width=".25218" height=".22416" fill="#333" stroke-width=".59776" index="0" side="left" type="input"/>
  <rect x="42.077" y="16.82" width=".25218" height=".22416" fill="#333" stroke-width=".59776" index="0" side="right" type="output"/>
 </g>
 <g id="nor">
  <g fill="#1a1a1a">
   <rect x="-.0017392" y="8.47" width="8.4662" height="2.116" stroke-width=".090015"/>
   <rect x="-.0017392" y="23.28" width="8.4662" height="2.116" stroke-width=".090015"/>
   <path d="m4.4933 0v0.01c-2.189 0 0 1.8904 0 1.8904a8.4657 16.928 0 0 1 4.5792 15.028 8.4657 16.928 0 0 1-4.5792 15.038s-2.189 1.8904 0 1.8904h20.935a8.4657 16.928 0 0 0 7.8161-10.593v0.016c0.51763-1.8425 0.70223-3.5208 2.7347-4.2319l-1.1733-0.8563-0.42997-1.2597 0.42997-1.2596 1.1733-0.8563c-2.0326-0.7111-2.2172-2.3894-2.7347-4.232v0.013a8.4657 16.928 0 0 0-7.8161-10.593v-8e-4h-0.0316z" stroke-width=".06999"/>
   <path d="m35.979 14.82a2.1165 2.116 0 0 0-2.1165 2.116 2.1165 2.116 0 0 0 2.1165 2.116 2.1165 2.116 0 0 0 1.8323-1.058h4.5172v-2.1159h-4.517a2.1165 2.116 0 0 0-1.8324-1.0581zm0 1.0581a1.0583 1.058 0 0 1 1.0582 1.0579 1.0583 1.058 0 0 1-1.0582 1.0581 1.0583 1.058 0 0 1-1.0584-1.0581 1.0583 1.058 0 0 1 1.0584-1.0579z" stroke-width=".067948"/>
  </g>
  <g fill="#333" stroke-width=".59776">
   <rect x="-.0017392" y="9.41" width=".25218" height=".22416" index="0" side="left" type="input"/>
   <rect x="-.0017392" y="24.23" width=".25218" height=".22416" index="1" side="left" type="input"/>
   <rect x="42.077" y="16.82" width=".25218" height=".22416" index="0" side="right" type="output"/>
  </g>
 </g>
</svg>
